# xmcd
#
# Track frame offsets:
#	150
#	23161
#	40749
#	63057
#	81429
#	110457
#	132238
#	159748
#	182440
#	211836
#	226290
#
# Disc length: 3334 seconds
# Revision: 0
# Processed by: cddbd v1.5.2PL0 Copyright (c) Steve Scherf et al.
# Submitted via: dBpowerAMP V12.0
#
DISCID=860d040b
DTITLE=Jimmie Vaughan - Do You Get The Blues
DYEAR=1900
DGENRE=Blues
TTITLE0=Dirty Girl
TTITLE1=Out Of The Shadows
TTITLE2=The Deep End
TTITLE3=Power Of Love
TTITLE4=Without You
TTITLE5=Let Me In
TTITLE6=Don't Let The Sun Set
TTITLE7=Robbin' Me Blind
TTITLE8=Slow Dance Blues
TTITLE9=In The Middle Of The Night
TTITLE10=Planet Bongo
EXTD=
EXTT0=
EXTT1=
EXTT2=
EXTT3=
EXTT4=
EXTT5=
EXTT6=
EXTT7=
EXTT8=
EXTT9=
EXTT10=
PLAYORDER=
